<svg width="25.000000" height="25.000000" viewBox="0 0 25 25" fill="none" xmlns="http://www.w3.org/2000/svg" xmlns:xlink="http://www.w3.org/1999/xlink">
	<desc>
			Created with Pixso.
	</desc>
	<defs/>
	<rect id="favicon" width="25.000000" height="25.000000" fill="#FFFFFF" fill-opacity="0"/>
	<rect id="Frame 18" width="13.000000" height="25.000000" transform="translate(6.000000 0.000000)" fill="#FFFFFF" fill-opacity="0"/>
	<path id="Vector" d="M11.77 8.42L8.99 14.83L6.44 14.83L6.44 15.38L8.7 15.38C8.7 15.38 6.77 19.69 6.44 20.49C6.12 21.3 7.09 21.68 7.09 21.68L6 25L6.16 25L10.46 15.38L12.2 15.38L12.2 16.1C12.18 16.17 12.23 16.29 12.52 16.32L12.52 16.33C12.55 16.33 12.58 16.33 12.61 16.33C12.64 16.33 12.67 16.33 12.7 16.33L12.7 16.32C13 16.29 13.05 16.17 13.03 16.1L13.03 15.38L14.76 15.38L19.07 25L19.23 25L18.14 21.68C18.14 21.68 19.1 21.3 18.78 20.49C18.46 19.69 16.52 15.38 16.52 15.38L18.78 15.38L18.78 14.83L16.24 14.83L13.46 8.42L11.77 8.42ZM12.61 10.44L10.73 14.83L12.2 14.83L12.2 14C12.2 13.83 12.44 13.8 12.61 13.8C12.79 13.8 13.03 13.83 13.03 14L13.03 14.83L14.5 14.83L12.61 10.44Z" fill="#000000" fill-opacity="1.000000" fill-rule="evenodd"/>
	<path id="Vector" d="M13.17 0L12.09 0L12.09 2.7C10.73 2.95 9.69 4.15 9.69 5.59C9.69 7.21 11.01 8.53 12.63 8.53C14.25 8.53 15.57 7.21 15.57 5.59C15.57 4.15 14.54 2.95 13.17 2.7L13.17 0ZM14.53 5.59C14.53 6.64 13.68 7.49 12.63 7.49C11.58 7.49 10.73 6.64 10.73 5.59C10.73 4.54 11.58 3.69 12.63 3.69C13.68 3.69 14.53 4.54 14.53 5.59Z" fill="#000000" fill-opacity="1.000000" fill-rule="evenodd"/>
</svg>
